<mxfile host="app.diagrams.net" agent="Mozilla/5.0 (Windows NT 10.0; Win64; x64; rv:138.0) Gecko/20100101 Firefox/138.0" version="27.0.5">
  <diagram name="Page-1" id="RhfKtj9mxJohuRgU_EOj">
    <mxGraphModel dx="1572" dy="942" grid="1" gridSize="10" guides="1" tooltips="1" connect="1" arrows="1" fold="1" page="1" pageScale="1" pageWidth="3300" pageHeight="4681" math="0" shadow="0">
      <root>
        <mxCell id="0" />
        <mxCell id="1" parent="0" />
        <mxCell id="KnfjHRd368rZdnM_9TXo-3" style="edgeStyle=orthogonalEdgeStyle;rounded=0;orthogonalLoop=1;jettySize=auto;html=1;exitX=1;exitY=0.5;exitDx=0;exitDy=0;entryX=0;entryY=0.5;entryDx=0;entryDy=0;" edge="1" parent="1" source="KnfjHRd368rZdnM_9TXo-1" target="KnfjHRd368rZdnM_9TXo-2">
          <mxGeometry relative="1" as="geometry" />
        </mxCell>
        <mxCell id="KnfjHRd368rZdnM_9TXo-1" value="data&#xa;Clinical Records&#xa;CKD Patients" style="rectangle;fillColor=#fff2cc;strokeColor=#d6b656;" name="data" vertex="1" parent="1">
          <mxGeometry x="340" y="230" width="100" height="50" as="geometry" />
        </mxCell>
        <mxCell id="KnfjHRd368rZdnM_9TXo-5" style="edgeStyle=orthogonalEdgeStyle;rounded=0;orthogonalLoop=1;jettySize=auto;html=1;exitX=1;exitY=0.5;exitDx=0;exitDy=0;entryX=0.5;entryY=0;entryDx=0;entryDy=0;" edge="1" parent="1" source="KnfjHRd368rZdnM_9TXo-2" target="KnfjHRd368rZdnM_9TXo-4">
          <mxGeometry relative="1" as="geometry" />
        </mxCell>
        <mxCell id="KnfjHRd368rZdnM_9TXo-2" value="transform" style="rounded=1;whiteSpace=wrap;html=1;arcSize=50;fillColor=#f8cecc;strokeColor=#b85450;" name="transform" vertex="1" parent="1">
          <mxGeometry x="520" y="230" width="100" height="50" as="geometry" />
        </mxCell>
        <mxCell id="KnfjHRd368rZdnM_9TXo-7" style="edgeStyle=orthogonalEdgeStyle;rounded=0;orthogonalLoop=1;jettySize=auto;html=1;exitX=0.5;exitY=1;exitDx=0;exitDy=0;entryX=1;entryY=0.5;entryDx=0;entryDy=0;" edge="1" parent="1" source="KnfjHRd368rZdnM_9TXo-4" target="KnfjHRd368rZdnM_9TXo-6">
          <mxGeometry relative="1" as="geometry" />
        </mxCell>
        <mxCell id="KnfjHRd368rZdnM_9TXo-4" value="data&#xa;Preprocessed&#xa;Data" style="rectangle;fillColor=#fff2cc;strokeColor=#d6b656;" name="data" vertex="1" parent="1">
          <mxGeometry x="650" y="330" width="100" height="50" as="geometry" />
        </mxCell>
        <mxCell id="KnfjHRd368rZdnM_9TXo-9" style="edgeStyle=orthogonalEdgeStyle;rounded=0;orthogonalLoop=1;jettySize=auto;html=1;exitX=0;exitY=0.5;exitDx=0;exitDy=0;entryX=0.5;entryY=0;entryDx=0;entryDy=0;" edge="1" parent="1" source="KnfjHRd368rZdnM_9TXo-6" target="KnfjHRd368rZdnM_9TXo-8">
          <mxGeometry relative="1" as="geometry" />
        </mxCell>
        <mxCell id="KnfjHRd368rZdnM_9TXo-6" value="transform" style="rounded=1;whiteSpace=wrap;html=1;arcSize=50;fillColor=#f8cecc;strokeColor=#b85450;" name="transform" vertex="1" parent="1">
          <mxGeometry x="520" y="430" width="100" height="50" as="geometry" />
        </mxCell>
        <mxCell id="KnfjHRd368rZdnM_9TXo-11" style="edgeStyle=orthogonalEdgeStyle;rounded=0;orthogonalLoop=1;jettySize=auto;html=1;exitX=0.5;exitY=1;exitDx=0;exitDy=0;entryX=0.5;entryY=0;entryDx=0;entryDy=0;" edge="1" parent="1" source="KnfjHRd368rZdnM_9TXo-8" target="KnfjHRd368rZdnM_9TXo-10">
          <mxGeometry relative="1" as="geometry" />
        </mxCell>
        <mxCell id="KnfjHRd368rZdnM_9TXo-8" value="data&#xa;Selected Variables" style="rectangle;fillColor=#fff2cc;strokeColor=#d6b656;" name="data" vertex="1" parent="1">
          <mxGeometry x="390" y="530" width="100" height="50" as="geometry" />
        </mxCell>
        <mxCell id="KnfjHRd368rZdnM_9TXo-13" style="edgeStyle=orthogonalEdgeStyle;rounded=0;orthogonalLoop=1;jettySize=auto;html=1;exitX=0.5;exitY=1;exitDx=0;exitDy=0;entryX=0.5;entryY=0;entryDx=0;entryDy=0;" edge="1" parent="1" source="KnfjHRd368rZdnM_9TXo-10" target="KnfjHRd368rZdnM_9TXo-12">
          <mxGeometry relative="1" as="geometry" />
        </mxCell>
        <mxCell id="KnfjHRd368rZdnM_9TXo-10" value="generate:train" style="rounded=1;whiteSpace=wrap;html=1;arcSize=50;fillColor=#e1d5e7;strokeColor=#9673a6;" name="generate:train" vertex="1" parent="1">
          <mxGeometry x="390" y="660" width="100" height="50" as="geometry" />
        </mxCell>
        <mxCell id="KnfjHRd368rZdnM_9TXo-15" style="edgeStyle=orthogonalEdgeStyle;rounded=0;orthogonalLoop=1;jettySize=auto;html=1;exitX=1;exitY=0.5;exitDx=0;exitDy=0;entryX=0;entryY=0.5;entryDx=0;entryDy=0;" edge="1" parent="1" source="KnfjHRd368rZdnM_9TXo-12" target="KnfjHRd368rZdnM_9TXo-14">
          <mxGeometry relative="1" as="geometry" />
        </mxCell>
        <mxCell id="KnfjHRd368rZdnM_9TXo-12" value="model:hybrid&#xa;ANFIS" style="shape=hexagon;perimeter=hexagonPerimeter2;fillColor=#b0e3e6;strokeColor=#0e8088;" name="model" vertex="1" parent="1">
          <mxGeometry x="380" y="790" width="120" height="50" as="geometry" />
        </mxCell>
        <mxCell id="KnfjHRd368rZdnM_9TXo-19" style="edgeStyle=orthogonalEdgeStyle;rounded=0;orthogonalLoop=1;jettySize=auto;html=1;exitX=1;exitY=0.5;exitDx=0;exitDy=0;entryX=0;entryY=0.5;entryDx=0;entryDy=0;" edge="1" parent="1" source="KnfjHRd368rZdnM_9TXo-14" target="KnfjHRd368rZdnM_9TXo-18">
          <mxGeometry relative="1" as="geometry" />
        </mxCell>
        <mxCell id="KnfjHRd368rZdnM_9TXo-14" value="infer:predict" style="rounded=1;whiteSpace=wrap;html=1;arcSize=50;fillColor=#bac8d3;strokeColor=#23445d;" name="infer:deduce" vertex="1" parent="1">
          <mxGeometry x="580" y="790" width="100" height="50" as="geometry" />
        </mxCell>
        <mxCell id="KnfjHRd368rZdnM_9TXo-17" style="edgeStyle=orthogonalEdgeStyle;rounded=0;orthogonalLoop=1;jettySize=auto;html=1;exitX=0.5;exitY=0;exitDx=0;exitDy=0;entryX=0.5;entryY=1;entryDx=0;entryDy=0;" edge="1" parent="1" source="KnfjHRd368rZdnM_9TXo-16" target="KnfjHRd368rZdnM_9TXo-14">
          <mxGeometry relative="1" as="geometry" />
        </mxCell>
        <mxCell id="KnfjHRd368rZdnM_9TXo-16" value="data&#xa;New GFR and&#xa;Patient Data" style="rectangle;fillColor=#fff2cc;strokeColor=#d6b656;" name="data" vertex="1" parent="1">
          <mxGeometry x="580" y="920" width="100" height="50" as="geometry" />
        </mxCell>
        <mxCell id="KnfjHRd368rZdnM_9TXo-18" value="symbol&#xa;Predicted GFR&#xa;Values" style="rectangle;fillColor=#dae8fc;strokeColor=#6c8ebf;" name="symbol" vertex="1" parent="1">
          <mxGeometry x="760" y="790" width="100" height="50" as="geometry" />
        </mxCell>
      </root>
    </mxGraphModel>
  </diagram>
</mxfile>
